<svg 
 xmlns="http://www.w3.org/2000/svg"
 xmlns:xlink="http://www.w3.org/1999/xlink"
 width="32px" height="32px">
<path fill-rule="evenodd"  fill="rgb(255, 216, 0)"
 d="M16.000,32.000 C7.178,32.000 -0.000,24.822 -0.000,16.000 C-0.000,7.178 7.178,0.000 16.000,0.000 C24.822,0.000 32.000,7.178 32.000,16.000 C32.000,24.822 24.822,32.000 16.000,32.000 ZM16.000,4.000 C9.383,4.000 4.000,9.383 4.000,16.000 C4.000,22.617 9.383,28.000 16.000,28.000 C22.617,28.000 28.000,22.617 28.000,16.000 C28.000,9.383 22.617,4.000 16.000,4.000 ZM20.375,17.291 L22.176,24.000 L16.000,20.307 L9.824,24.000 L11.625,17.291 L6.000,12.875 L13.301,12.432 L16.000,6.000 L18.699,12.432 L26.000,12.875 L20.375,17.291 Z"/>
</svg>